<svg id="Camada_1" data-name="Camada 1" xmlns="http://www.w3.org/2000/svg" viewBox="0 0 58.39 63.05"><defs><style>.cls-1{fill:#fff;}.cls-2{fill:none;stroke:#3aa1db;stroke-miterlimit:10;opacity:0;}</style></defs><path class="cls-1" d="M53.81,33a46.46,46.46,0,0,1-8,8.77c-1.58,1.31-3.31,2.58-5.64,2.58h-.34A7.71,7.71,0,0,1,34,41a.71.71,0,0,1,.12-1L36,38.44a.83.83,0,0,1,1.19.11A4.36,4.36,0,0,0,40,40.39c.86,0,1.67-.37,3.2-1.65a43.06,43.06,0,0,0,7.34-8,3.61,3.61,0,0,0,.61-3.18,2.91,2.91,0,0,0-.43-.82,3.17,3.17,0,0,0-1.31-1,3.75,3.75,0,0,0-4.19,1c-2,2.06-4,4.14-6,6.21a6.68,6.68,0,0,0-2.12-.55,8.81,8.81,0,0,0-2.74.3l2.26-2.74,0-.05L42.33,24A7.75,7.75,0,0,1,51,22a7.19,7.19,0,0,1,2.9,2.28,6.78,6.78,0,0,1,1,2A7.55,7.55,0,0,1,53.81,33Z" transform="translate(-9.33 -6.95)"/><path class="cls-1" d="M22.82,44.11a46.1,46.1,0,0,1,8.25-8.56c1.61-1.27,3.37-2.49,5.7-2.43h.34a7.66,7.66,0,0,1,5.67,3.41.88.88,0,0,1-.18,1.18l-1.87,1.51a.74.74,0,0,1-1.07-.13,4.45,4.45,0,0,0-2.86-2c-.86-.07-1.68.33-3.24,1.57A43,43,0,0,0,26,46.51a3.59,3.59,0,0,0-.69,3.17,2.8,2.8,0,0,0,.41.83A3.08,3.08,0,0,0,27,51.56a3.73,3.73,0,0,0,4.21-.89l6.22-6.17a6,6,0,0,0,2,.73A9,9,0,0,0,42.19,45l-2.34,2.68,0,0-5.75,5.77a7.76,7.76,0,0,1-8.76,1.69,7.28,7.28,0,0,1-2.84-2.36,6.86,6.86,0,0,1-1-2A7.54,7.54,0,0,1,22.82,44.11Z" transform="translate(-9.33 -6.95)"/><rect class="cls-2" x="0.5" y="0.5" width="57.39" height="62.05"/></svg>